<mxfile host="Electron" agent="Mozilla/5.0 (Macintosh; Intel Mac OS X 10_15_7) AppleWebKit/537.36 (KHTML, like Gecko) draw.io/24.7.5 Chrome/126.0.6478.183 Electron/31.3.0 Safari/537.36" version="24.7.5">
  <diagram name="Page-1" id="RISg9Th8oBvu507AWjIm">
    <mxGraphModel dx="1710" dy="1098" grid="1" gridSize="10" guides="1" tooltips="1" connect="1" arrows="1" fold="1" page="1" pageScale="1" pageWidth="827" pageHeight="1169" math="0" shadow="0">
      <root>
        <mxCell id="0" />
        <mxCell id="1" parent="0" />
        <mxCell id="2AzcEBxbOQShJ1PpPgPd-1" value="" style="ellipse;whiteSpace=wrap;html=1;aspect=fixed;fillColor=#f8cecc;strokeColor=#b85450;strokeWidth=7;" parent="1" vertex="1">
          <mxGeometry x="120" y="40" width="40" height="40" as="geometry" />
        </mxCell>
        <mxCell id="2AzcEBxbOQShJ1PpPgPd-2" value="" style="ellipse;whiteSpace=wrap;html=1;aspect=fixed;fillColor=#dae8fc;strokeColor=#6c8ebf;" parent="1" vertex="1">
          <mxGeometry x="80" y="120" width="40" height="40" as="geometry" />
        </mxCell>
        <mxCell id="2AzcEBxbOQShJ1PpPgPd-3" value="" style="ellipse;whiteSpace=wrap;html=1;aspect=fixed;fillColor=#dae8fc;strokeColor=#6c8ebf;" parent="1" vertex="1">
          <mxGeometry x="160" y="120" width="40" height="40" as="geometry" />
        </mxCell>
        <mxCell id="2AzcEBxbOQShJ1PpPgPd-4" value="" style="ellipse;whiteSpace=wrap;html=1;aspect=fixed;fillColor=#dae8fc;strokeColor=#6c8ebf;" parent="1" vertex="1">
          <mxGeometry x="190" y="200" width="40" height="40" as="geometry" />
        </mxCell>
        <mxCell id="2AzcEBxbOQShJ1PpPgPd-5" value="" style="endArrow=classic;html=1;rounded=0;exitX=0;exitY=1;exitDx=0;exitDy=0;entryX=0.5;entryY=0;entryDx=0;entryDy=0;" parent="1" source="2AzcEBxbOQShJ1PpPgPd-1" target="2AzcEBxbOQShJ1PpPgPd-2" edge="1">
          <mxGeometry width="50" height="50" relative="1" as="geometry">
            <mxPoint x="390" y="330" as="sourcePoint" />
            <mxPoint x="440" y="280" as="targetPoint" />
          </mxGeometry>
        </mxCell>
        <mxCell id="2AzcEBxbOQShJ1PpPgPd-6" value="" style="endArrow=classic;html=1;rounded=0;exitX=1;exitY=1;exitDx=0;exitDy=0;entryX=0.5;entryY=0;entryDx=0;entryDy=0;" parent="1" source="2AzcEBxbOQShJ1PpPgPd-1" target="2AzcEBxbOQShJ1PpPgPd-3" edge="1">
          <mxGeometry width="50" height="50" relative="1" as="geometry">
            <mxPoint x="136" y="84" as="sourcePoint" />
            <mxPoint x="110" y="130" as="targetPoint" />
          </mxGeometry>
        </mxCell>
        <mxCell id="2AzcEBxbOQShJ1PpPgPd-7" value="" style="endArrow=classic;html=1;rounded=0;exitX=1;exitY=1;exitDx=0;exitDy=0;entryX=0.35;entryY=0.025;entryDx=0;entryDy=0;entryPerimeter=0;" parent="1" source="2AzcEBxbOQShJ1PpPgPd-3" target="2AzcEBxbOQShJ1PpPgPd-4" edge="1">
          <mxGeometry width="50" height="50" relative="1" as="geometry">
            <mxPoint x="164" y="84" as="sourcePoint" />
            <mxPoint x="190" y="130" as="targetPoint" />
          </mxGeometry>
        </mxCell>
        <mxCell id="2AzcEBxbOQShJ1PpPgPd-8" value="" style="ellipse;whiteSpace=wrap;html=1;aspect=fixed;fillColor=#f8cecc;strokeColor=#b85450;strokeWidth=7;" parent="1" vertex="1">
          <mxGeometry x="360" y="40" width="40" height="40" as="geometry" />
        </mxCell>
        <mxCell id="2AzcEBxbOQShJ1PpPgPd-9" value="" style="ellipse;whiteSpace=wrap;html=1;aspect=fixed;fillColor=#fff2cc;strokeColor=#d6b656;" parent="1" vertex="1">
          <mxGeometry x="320" y="120" width="40" height="40" as="geometry" />
        </mxCell>
        <mxCell id="2AzcEBxbOQShJ1PpPgPd-10" value="" style="ellipse;whiteSpace=wrap;html=1;aspect=fixed;fillColor=#f8cecc;strokeColor=#b85450;" parent="1" vertex="1">
          <mxGeometry x="400" y="120" width="40" height="40" as="geometry" />
        </mxCell>
        <mxCell id="2AzcEBxbOQShJ1PpPgPd-11" value="" style="ellipse;whiteSpace=wrap;html=1;aspect=fixed;fillColor=#dae8fc;strokeColor=#6c8ebf;" parent="1" vertex="1">
          <mxGeometry x="430" y="200" width="40" height="40" as="geometry" />
        </mxCell>
        <mxCell id="2AzcEBxbOQShJ1PpPgPd-12" value="" style="endArrow=classic;html=1;rounded=0;exitX=0;exitY=1;exitDx=0;exitDy=0;entryX=0.5;entryY=0;entryDx=0;entryDy=0;" parent="1" source="2AzcEBxbOQShJ1PpPgPd-8" target="2AzcEBxbOQShJ1PpPgPd-9" edge="1">
          <mxGeometry width="50" height="50" relative="1" as="geometry">
            <mxPoint x="630" y="330" as="sourcePoint" />
            <mxPoint x="680" y="280" as="targetPoint" />
          </mxGeometry>
        </mxCell>
        <mxCell id="2AzcEBxbOQShJ1PpPgPd-13" value="" style="endArrow=classic;html=1;rounded=0;exitX=1;exitY=1;exitDx=0;exitDy=0;entryX=0.5;entryY=0;entryDx=0;entryDy=0;" parent="1" source="2AzcEBxbOQShJ1PpPgPd-8" target="2AzcEBxbOQShJ1PpPgPd-10" edge="1">
          <mxGeometry width="50" height="50" relative="1" as="geometry">
            <mxPoint x="376" y="84" as="sourcePoint" />
            <mxPoint x="350" y="130" as="targetPoint" />
          </mxGeometry>
        </mxCell>
        <mxCell id="2AzcEBxbOQShJ1PpPgPd-14" value="" style="endArrow=classic;html=1;rounded=0;exitX=1;exitY=1;exitDx=0;exitDy=0;entryX=0.35;entryY=0.025;entryDx=0;entryDy=0;entryPerimeter=0;" parent="1" source="2AzcEBxbOQShJ1PpPgPd-10" target="2AzcEBxbOQShJ1PpPgPd-11" edge="1">
          <mxGeometry width="50" height="50" relative="1" as="geometry">
            <mxPoint x="404" y="84" as="sourcePoint" />
            <mxPoint x="430" y="130" as="targetPoint" />
          </mxGeometry>
        </mxCell>
        <mxCell id="2AzcEBxbOQShJ1PpPgPd-15" value="" style="ellipse;whiteSpace=wrap;html=1;aspect=fixed;fillColor=#f8cecc;strokeColor=#b85450;strokeWidth=7;" parent="1" vertex="1">
          <mxGeometry x="600" y="40" width="40" height="40" as="geometry" />
        </mxCell>
        <mxCell id="2AzcEBxbOQShJ1PpPgPd-16" value="" style="ellipse;whiteSpace=wrap;html=1;aspect=fixed;fillColor=#fff2cc;strokeColor=#d6b656;" parent="1" vertex="1">
          <mxGeometry x="560" y="120" width="40" height="40" as="geometry" />
        </mxCell>
        <mxCell id="2AzcEBxbOQShJ1PpPgPd-17" value="" style="ellipse;whiteSpace=wrap;html=1;aspect=fixed;fillColor=#f8cecc;strokeColor=#b85450;" parent="1" vertex="1">
          <mxGeometry x="640" y="120" width="40" height="40" as="geometry" />
        </mxCell>
        <mxCell id="2AzcEBxbOQShJ1PpPgPd-18" value="" style="ellipse;whiteSpace=wrap;html=1;aspect=fixed;fillColor=#fff2cc;strokeColor=#d6b656;" parent="1" vertex="1">
          <mxGeometry x="670" y="200" width="40" height="40" as="geometry" />
        </mxCell>
        <mxCell id="2AzcEBxbOQShJ1PpPgPd-19" value="" style="endArrow=classic;html=1;rounded=0;exitX=0;exitY=1;exitDx=0;exitDy=0;entryX=0.5;entryY=0;entryDx=0;entryDy=0;" parent="1" source="2AzcEBxbOQShJ1PpPgPd-15" target="2AzcEBxbOQShJ1PpPgPd-16" edge="1">
          <mxGeometry width="50" height="50" relative="1" as="geometry">
            <mxPoint x="870" y="330" as="sourcePoint" />
            <mxPoint x="920" y="280" as="targetPoint" />
          </mxGeometry>
        </mxCell>
        <mxCell id="2AzcEBxbOQShJ1PpPgPd-20" value="" style="endArrow=classic;html=1;rounded=0;exitX=1;exitY=1;exitDx=0;exitDy=0;entryX=0.5;entryY=0;entryDx=0;entryDy=0;" parent="1" source="2AzcEBxbOQShJ1PpPgPd-15" target="2AzcEBxbOQShJ1PpPgPd-17" edge="1">
          <mxGeometry width="50" height="50" relative="1" as="geometry">
            <mxPoint x="616" y="84" as="sourcePoint" />
            <mxPoint x="590" y="130" as="targetPoint" />
          </mxGeometry>
        </mxCell>
        <mxCell id="2AzcEBxbOQShJ1PpPgPd-21" value="" style="endArrow=classic;html=1;rounded=0;exitX=1;exitY=1;exitDx=0;exitDy=0;entryX=0.35;entryY=0.025;entryDx=0;entryDy=0;entryPerimeter=0;" parent="1" source="2AzcEBxbOQShJ1PpPgPd-17" target="2AzcEBxbOQShJ1PpPgPd-18" edge="1">
          <mxGeometry width="50" height="50" relative="1" as="geometry">
            <mxPoint x="644" y="84" as="sourcePoint" />
            <mxPoint x="670" y="130" as="targetPoint" />
          </mxGeometry>
        </mxCell>
        <mxCell id="2AzcEBxbOQShJ1PpPgPd-22" value="" style="ellipse;whiteSpace=wrap;html=1;aspect=fixed;fillColor=#f8cecc;strokeColor=#b85450;strokeWidth=7;" parent="1" vertex="1">
          <mxGeometry x="120" y="300" width="40" height="40" as="geometry" />
        </mxCell>
        <mxCell id="2AzcEBxbOQShJ1PpPgPd-23" value="" style="ellipse;whiteSpace=wrap;html=1;aspect=fixed;fillColor=#fff2cc;strokeColor=#d6b656;" parent="1" vertex="1">
          <mxGeometry x="80" y="380" width="40" height="40" as="geometry" />
        </mxCell>
        <mxCell id="2AzcEBxbOQShJ1PpPgPd-24" value="" style="ellipse;whiteSpace=wrap;html=1;aspect=fixed;fillColor=#fff2cc;strokeColor=#d6b656;" parent="1" vertex="1">
          <mxGeometry x="160" y="380" width="40" height="40" as="geometry" />
        </mxCell>
        <mxCell id="2AzcEBxbOQShJ1PpPgPd-25" value="" style="ellipse;whiteSpace=wrap;html=1;aspect=fixed;fillColor=#fff2cc;strokeColor=#d6b656;" parent="1" vertex="1">
          <mxGeometry x="190" y="460" width="40" height="40" as="geometry" />
        </mxCell>
        <mxCell id="2AzcEBxbOQShJ1PpPgPd-26" value="" style="endArrow=classic;html=1;rounded=0;exitX=0;exitY=1;exitDx=0;exitDy=0;entryX=0.5;entryY=0;entryDx=0;entryDy=0;" parent="1" source="2AzcEBxbOQShJ1PpPgPd-22" target="2AzcEBxbOQShJ1PpPgPd-23" edge="1">
          <mxGeometry width="50" height="50" relative="1" as="geometry">
            <mxPoint x="390" y="590" as="sourcePoint" />
            <mxPoint x="440" y="540" as="targetPoint" />
          </mxGeometry>
        </mxCell>
        <mxCell id="2AzcEBxbOQShJ1PpPgPd-27" value="" style="endArrow=classic;html=1;rounded=0;exitX=1;exitY=1;exitDx=0;exitDy=0;entryX=0.5;entryY=0;entryDx=0;entryDy=0;" parent="1" source="2AzcEBxbOQShJ1PpPgPd-22" target="2AzcEBxbOQShJ1PpPgPd-24" edge="1">
          <mxGeometry width="50" height="50" relative="1" as="geometry">
            <mxPoint x="136" y="344" as="sourcePoint" />
            <mxPoint x="110" y="390" as="targetPoint" />
          </mxGeometry>
        </mxCell>
        <mxCell id="2AzcEBxbOQShJ1PpPgPd-28" value="" style="endArrow=classic;html=1;rounded=0;exitX=1;exitY=1;exitDx=0;exitDy=0;entryX=0.35;entryY=0.025;entryDx=0;entryDy=0;entryPerimeter=0;" parent="1" source="2AzcEBxbOQShJ1PpPgPd-24" target="2AzcEBxbOQShJ1PpPgPd-25" edge="1">
          <mxGeometry width="50" height="50" relative="1" as="geometry">
            <mxPoint x="164" y="344" as="sourcePoint" />
            <mxPoint x="190" y="390" as="targetPoint" />
          </mxGeometry>
        </mxCell>
        <mxCell id="2AzcEBxbOQShJ1PpPgPd-36" value="" style="ellipse;whiteSpace=wrap;html=1;aspect=fixed;fillColor=#e1d5e7;strokeColor=#9673a6;strokeWidth=7;" parent="1" vertex="1">
          <mxGeometry x="360" y="300" width="40" height="40" as="geometry" />
        </mxCell>
        <mxCell id="2AzcEBxbOQShJ1PpPgPd-37" value="" style="ellipse;whiteSpace=wrap;html=1;aspect=fixed;fillColor=#fff2cc;strokeColor=#d6b656;" parent="1" vertex="1">
          <mxGeometry x="320" y="380" width="40" height="40" as="geometry" />
        </mxCell>
        <mxCell id="2AzcEBxbOQShJ1PpPgPd-38" value="" style="ellipse;whiteSpace=wrap;html=1;aspect=fixed;fillColor=#fff2cc;strokeColor=#d6b656;" parent="1" vertex="1">
          <mxGeometry x="400" y="380" width="40" height="40" as="geometry" />
        </mxCell>
        <mxCell id="2AzcEBxbOQShJ1PpPgPd-39" value="" style="ellipse;whiteSpace=wrap;html=1;aspect=fixed;fillColor=#fff2cc;strokeColor=#d6b656;" parent="1" vertex="1">
          <mxGeometry x="430" y="460" width="40" height="40" as="geometry" />
        </mxCell>
        <mxCell id="2AzcEBxbOQShJ1PpPgPd-40" value="" style="endArrow=classic;html=1;rounded=0;exitX=0;exitY=1;exitDx=0;exitDy=0;entryX=0.5;entryY=0;entryDx=0;entryDy=0;" parent="1" source="2AzcEBxbOQShJ1PpPgPd-36" target="2AzcEBxbOQShJ1PpPgPd-37" edge="1">
          <mxGeometry width="50" height="50" relative="1" as="geometry">
            <mxPoint x="630" y="590" as="sourcePoint" />
            <mxPoint x="680" y="540" as="targetPoint" />
          </mxGeometry>
        </mxCell>
        <mxCell id="2AzcEBxbOQShJ1PpPgPd-41" value="" style="endArrow=classic;html=1;rounded=0;exitX=1;exitY=1;exitDx=0;exitDy=0;entryX=0.5;entryY=0;entryDx=0;entryDy=0;" parent="1" source="2AzcEBxbOQShJ1PpPgPd-36" target="2AzcEBxbOQShJ1PpPgPd-38" edge="1">
          <mxGeometry width="50" height="50" relative="1" as="geometry">
            <mxPoint x="376" y="344" as="sourcePoint" />
            <mxPoint x="350" y="390" as="targetPoint" />
          </mxGeometry>
        </mxCell>
        <mxCell id="2AzcEBxbOQShJ1PpPgPd-42" value="" style="endArrow=classic;html=1;rounded=0;exitX=1;exitY=1;exitDx=0;exitDy=0;entryX=0.35;entryY=0.025;entryDx=0;entryDy=0;entryPerimeter=0;" parent="1" source="2AzcEBxbOQShJ1PpPgPd-38" target="2AzcEBxbOQShJ1PpPgPd-39" edge="1">
          <mxGeometry width="50" height="50" relative="1" as="geometry">
            <mxPoint x="404" y="344" as="sourcePoint" />
            <mxPoint x="430" y="390" as="targetPoint" />
          </mxGeometry>
        </mxCell>
        <mxCell id="2AzcEBxbOQShJ1PpPgPd-43" value="" style="ellipse;whiteSpace=wrap;html=1;aspect=fixed;fillColor=#e1d5e7;strokeColor=#9673a6;strokeWidth=7;dashed=1;" parent="1" vertex="1">
          <mxGeometry x="120" y="560" width="40" height="40" as="geometry" />
        </mxCell>
        <mxCell id="2AzcEBxbOQShJ1PpPgPd-44" value="" style="ellipse;whiteSpace=wrap;html=1;aspect=fixed;fillColor=#e1d5e7;strokeColor=#9673a6;strokeWidth=7;dashed=1;" parent="1" vertex="1">
          <mxGeometry x="80" y="640" width="40" height="40" as="geometry" />
        </mxCell>
        <mxCell id="2AzcEBxbOQShJ1PpPgPd-45" value="" style="ellipse;whiteSpace=wrap;html=1;aspect=fixed;fillColor=#e1d5e7;strokeColor=#9673a6;strokeWidth=7;dashed=1;" parent="1" vertex="1">
          <mxGeometry x="160" y="640" width="40" height="40" as="geometry" />
        </mxCell>
        <mxCell id="2AzcEBxbOQShJ1PpPgPd-46" value="" style="ellipse;whiteSpace=wrap;html=1;aspect=fixed;fillColor=#e1d5e7;strokeColor=#9673a6;strokeWidth=7;" parent="1" vertex="1">
          <mxGeometry x="190" y="720" width="40" height="40" as="geometry" />
        </mxCell>
        <mxCell id="2AzcEBxbOQShJ1PpPgPd-47" value="" style="endArrow=classic;html=1;rounded=0;exitX=0;exitY=1;exitDx=0;exitDy=0;entryX=0.5;entryY=0;entryDx=0;entryDy=0;" parent="1" source="2AzcEBxbOQShJ1PpPgPd-43" target="2AzcEBxbOQShJ1PpPgPd-44" edge="1">
          <mxGeometry width="50" height="50" relative="1" as="geometry">
            <mxPoint x="390" y="850" as="sourcePoint" />
            <mxPoint x="440" y="800" as="targetPoint" />
          </mxGeometry>
        </mxCell>
        <mxCell id="2AzcEBxbOQShJ1PpPgPd-48" value="" style="endArrow=classic;html=1;rounded=0;exitX=1;exitY=1;exitDx=0;exitDy=0;entryX=0.5;entryY=0;entryDx=0;entryDy=0;" parent="1" source="2AzcEBxbOQShJ1PpPgPd-43" target="2AzcEBxbOQShJ1PpPgPd-45" edge="1">
          <mxGeometry width="50" height="50" relative="1" as="geometry">
            <mxPoint x="136" y="604" as="sourcePoint" />
            <mxPoint x="110" y="650" as="targetPoint" />
          </mxGeometry>
        </mxCell>
        <mxCell id="2AzcEBxbOQShJ1PpPgPd-49" value="" style="endArrow=classic;html=1;rounded=0;exitX=1;exitY=1;exitDx=0;exitDy=0;entryX=0.35;entryY=0.025;entryDx=0;entryDy=0;entryPerimeter=0;" parent="1" source="2AzcEBxbOQShJ1PpPgPd-45" target="2AzcEBxbOQShJ1PpPgPd-46" edge="1">
          <mxGeometry width="50" height="50" relative="1" as="geometry">
            <mxPoint x="164" y="604" as="sourcePoint" />
            <mxPoint x="190" y="650" as="targetPoint" />
          </mxGeometry>
        </mxCell>
        <mxCell id="2AzcEBxbOQShJ1PpPgPd-50" value="" style="ellipse;whiteSpace=wrap;html=1;aspect=fixed;fillColor=#e1d5e7;strokeColor=#9673a6;strokeWidth=7;dashed=1;" parent="1" vertex="1">
          <mxGeometry x="600" y="560" width="40" height="40" as="geometry" />
        </mxCell>
        <mxCell id="2AzcEBxbOQShJ1PpPgPd-51" value="" style="ellipse;whiteSpace=wrap;html=1;aspect=fixed;fillColor=#d5e8d4;strokeColor=#82b366;strokeWidth=7;dashed=1;dashPattern=1 1;" parent="1" vertex="1">
          <mxGeometry x="560" y="640" width="40" height="40" as="geometry" />
        </mxCell>
        <mxCell id="2AzcEBxbOQShJ1PpPgPd-52" value="" style="ellipse;whiteSpace=wrap;html=1;aspect=fixed;fillColor=#e1d5e7;strokeColor=#9673a6;strokeWidth=7;dashed=1;dashPattern=1 1;" parent="1" vertex="1">
          <mxGeometry x="640" y="640" width="40" height="40" as="geometry" />
        </mxCell>
        <mxCell id="2AzcEBxbOQShJ1PpPgPd-53" value="" style="ellipse;whiteSpace=wrap;html=1;aspect=fixed;fillColor=#e1d5e7;strokeColor=#9673a6;strokeWidth=7;dashed=1;" parent="1" vertex="1">
          <mxGeometry x="670" y="720" width="40" height="40" as="geometry" />
        </mxCell>
        <mxCell id="2AzcEBxbOQShJ1PpPgPd-54" value="" style="endArrow=classic;html=1;rounded=0;exitX=0;exitY=1;exitDx=0;exitDy=0;entryX=0.5;entryY=0;entryDx=0;entryDy=0;" parent="1" source="2AzcEBxbOQShJ1PpPgPd-50" target="2AzcEBxbOQShJ1PpPgPd-51" edge="1">
          <mxGeometry width="50" height="50" relative="1" as="geometry">
            <mxPoint x="870" y="850" as="sourcePoint" />
            <mxPoint x="920" y="800" as="targetPoint" />
          </mxGeometry>
        </mxCell>
        <mxCell id="2AzcEBxbOQShJ1PpPgPd-55" value="" style="endArrow=classic;html=1;rounded=0;exitX=1;exitY=1;exitDx=0;exitDy=0;entryX=0.5;entryY=0;entryDx=0;entryDy=0;" parent="1" source="2AzcEBxbOQShJ1PpPgPd-50" target="2AzcEBxbOQShJ1PpPgPd-52" edge="1">
          <mxGeometry width="50" height="50" relative="1" as="geometry">
            <mxPoint x="616" y="604" as="sourcePoint" />
            <mxPoint x="590" y="650" as="targetPoint" />
          </mxGeometry>
        </mxCell>
        <mxCell id="2AzcEBxbOQShJ1PpPgPd-56" value="" style="endArrow=classic;html=1;rounded=0;exitX=1;exitY=1;exitDx=0;exitDy=0;entryX=0.35;entryY=0.025;entryDx=0;entryDy=0;entryPerimeter=0;" parent="1" source="2AzcEBxbOQShJ1PpPgPd-52" target="2AzcEBxbOQShJ1PpPgPd-53" edge="1">
          <mxGeometry width="50" height="50" relative="1" as="geometry">
            <mxPoint x="644" y="604" as="sourcePoint" />
            <mxPoint x="670" y="650" as="targetPoint" />
          </mxGeometry>
        </mxCell>
        <mxCell id="2AzcEBxbOQShJ1PpPgPd-64" value="" style="ellipse;whiteSpace=wrap;html=1;aspect=fixed;fillColor=#e1d5e7;strokeColor=#9673a6;strokeWidth=7;dashed=1;" parent="1" vertex="1">
          <mxGeometry x="600" y="300" width="40" height="40" as="geometry" />
        </mxCell>
        <mxCell id="2AzcEBxbOQShJ1PpPgPd-65" value="" style="ellipse;whiteSpace=wrap;html=1;aspect=fixed;fillColor=#e1d5e7;strokeColor=#9673a6;strokeWidth=7;" parent="1" vertex="1">
          <mxGeometry x="560" y="380" width="40" height="40" as="geometry" />
        </mxCell>
        <mxCell id="2AzcEBxbOQShJ1PpPgPd-66" value="" style="ellipse;whiteSpace=wrap;html=1;aspect=fixed;fillColor=#e1d5e7;strokeColor=#9673a6;strokeWidth=7;" parent="1" vertex="1">
          <mxGeometry x="640" y="380" width="40" height="40" as="geometry" />
        </mxCell>
        <mxCell id="2AzcEBxbOQShJ1PpPgPd-67" value="" style="ellipse;whiteSpace=wrap;html=1;aspect=fixed;fillColor=#fff2cc;strokeColor=#d6b656;" parent="1" vertex="1">
          <mxGeometry x="670" y="460" width="40" height="40" as="geometry" />
        </mxCell>
        <mxCell id="2AzcEBxbOQShJ1PpPgPd-68" value="" style="endArrow=classic;html=1;rounded=0;exitX=0;exitY=1;exitDx=0;exitDy=0;entryX=0.5;entryY=0;entryDx=0;entryDy=0;" parent="1" source="2AzcEBxbOQShJ1PpPgPd-64" target="2AzcEBxbOQShJ1PpPgPd-65" edge="1">
          <mxGeometry width="50" height="50" relative="1" as="geometry">
            <mxPoint x="870" y="590" as="sourcePoint" />
            <mxPoint x="920" y="540" as="targetPoint" />
          </mxGeometry>
        </mxCell>
        <mxCell id="2AzcEBxbOQShJ1PpPgPd-69" value="" style="endArrow=classic;html=1;rounded=0;exitX=1;exitY=1;exitDx=0;exitDy=0;entryX=0.5;entryY=0;entryDx=0;entryDy=0;" parent="1" source="2AzcEBxbOQShJ1PpPgPd-64" target="2AzcEBxbOQShJ1PpPgPd-66" edge="1">
          <mxGeometry width="50" height="50" relative="1" as="geometry">
            <mxPoint x="616" y="344" as="sourcePoint" />
            <mxPoint x="590" y="390" as="targetPoint" />
          </mxGeometry>
        </mxCell>
        <mxCell id="2AzcEBxbOQShJ1PpPgPd-70" value="" style="endArrow=classic;html=1;rounded=0;exitX=1;exitY=1;exitDx=0;exitDy=0;entryX=0.35;entryY=0.025;entryDx=0;entryDy=0;entryPerimeter=0;" parent="1" source="2AzcEBxbOQShJ1PpPgPd-66" target="2AzcEBxbOQShJ1PpPgPd-67" edge="1">
          <mxGeometry width="50" height="50" relative="1" as="geometry">
            <mxPoint x="644" y="344" as="sourcePoint" />
            <mxPoint x="670" y="390" as="targetPoint" />
          </mxGeometry>
        </mxCell>
        <mxCell id="2AzcEBxbOQShJ1PpPgPd-71" value="" style="ellipse;whiteSpace=wrap;html=1;aspect=fixed;fillColor=#e1d5e7;strokeColor=#9673a6;strokeWidth=7;dashed=1;" parent="1" vertex="1">
          <mxGeometry x="360" y="560" width="40" height="40" as="geometry" />
        </mxCell>
        <mxCell id="2AzcEBxbOQShJ1PpPgPd-72" value="" style="ellipse;whiteSpace=wrap;html=1;aspect=fixed;fillColor=#e1d5e7;strokeColor=#9673a6;strokeWidth=7;dashed=1;" parent="1" vertex="1">
          <mxGeometry x="320" y="640" width="40" height="40" as="geometry" />
        </mxCell>
        <mxCell id="2AzcEBxbOQShJ1PpPgPd-73" value="" style="ellipse;whiteSpace=wrap;html=1;aspect=fixed;fillColor=#e1d5e7;strokeColor=#9673a6;strokeWidth=7;dashed=1;" parent="1" vertex="1">
          <mxGeometry x="400" y="640" width="40" height="40" as="geometry" />
        </mxCell>
        <mxCell id="2AzcEBxbOQShJ1PpPgPd-74" value="" style="ellipse;whiteSpace=wrap;html=1;aspect=fixed;fillColor=#e1d5e7;strokeColor=#9673a6;strokeWidth=7;dashed=1;" parent="1" vertex="1">
          <mxGeometry x="430" y="720" width="40" height="40" as="geometry" />
        </mxCell>
        <mxCell id="2AzcEBxbOQShJ1PpPgPd-75" value="" style="endArrow=classic;html=1;rounded=0;exitX=0;exitY=1;exitDx=0;exitDy=0;entryX=0.5;entryY=0;entryDx=0;entryDy=0;" parent="1" source="2AzcEBxbOQShJ1PpPgPd-71" target="2AzcEBxbOQShJ1PpPgPd-72" edge="1">
          <mxGeometry width="50" height="50" relative="1" as="geometry">
            <mxPoint x="630" y="850" as="sourcePoint" />
            <mxPoint x="680" y="800" as="targetPoint" />
          </mxGeometry>
        </mxCell>
        <mxCell id="2AzcEBxbOQShJ1PpPgPd-76" value="" style="endArrow=classic;html=1;rounded=0;exitX=1;exitY=1;exitDx=0;exitDy=0;entryX=0.5;entryY=0;entryDx=0;entryDy=0;" parent="1" source="2AzcEBxbOQShJ1PpPgPd-71" target="2AzcEBxbOQShJ1PpPgPd-73" edge="1">
          <mxGeometry width="50" height="50" relative="1" as="geometry">
            <mxPoint x="376" y="604" as="sourcePoint" />
            <mxPoint x="350" y="650" as="targetPoint" />
          </mxGeometry>
        </mxCell>
        <mxCell id="2AzcEBxbOQShJ1PpPgPd-77" value="" style="endArrow=classic;html=1;rounded=0;exitX=1;exitY=1;exitDx=0;exitDy=0;entryX=0.35;entryY=0.025;entryDx=0;entryDy=0;entryPerimeter=0;" parent="1" source="2AzcEBxbOQShJ1PpPgPd-73" target="2AzcEBxbOQShJ1PpPgPd-74" edge="1">
          <mxGeometry width="50" height="50" relative="1" as="geometry">
            <mxPoint x="404" y="604" as="sourcePoint" />
            <mxPoint x="430" y="650" as="targetPoint" />
          </mxGeometry>
        </mxCell>
        <mxCell id="2AzcEBxbOQShJ1PpPgPd-78" value="" style="ellipse;whiteSpace=wrap;html=1;aspect=fixed;fillColor=#e1d5e7;strokeColor=#9673a6;strokeWidth=7;dashed=1;dashPattern=1 1;" parent="1" vertex="1">
          <mxGeometry x="120" y="820" width="40" height="40" as="geometry" />
        </mxCell>
        <mxCell id="2AzcEBxbOQShJ1PpPgPd-79" value="" style="ellipse;whiteSpace=wrap;html=1;aspect=fixed;fillColor=#d5e8d4;strokeColor=#82b366;strokeWidth=7;dashed=1;dashPattern=1 1;" parent="1" vertex="1">
          <mxGeometry x="80" y="900" width="40" height="40" as="geometry" />
        </mxCell>
        <mxCell id="2AzcEBxbOQShJ1PpPgPd-80" value="" style="ellipse;whiteSpace=wrap;html=1;aspect=fixed;fillColor=#e1d5e7;strokeColor=#9673a6;strokeWidth=7;dashed=1;dashPattern=1 1;" parent="1" vertex="1">
          <mxGeometry x="160" y="900" width="40" height="40" as="geometry" />
        </mxCell>
        <mxCell id="2AzcEBxbOQShJ1PpPgPd-81" value="" style="ellipse;whiteSpace=wrap;html=1;aspect=fixed;fillColor=#d5e8d4;strokeColor=#82b366;strokeWidth=7;dashed=1;dashPattern=1 1;" parent="1" vertex="1">
          <mxGeometry x="190" y="980" width="40" height="40" as="geometry" />
        </mxCell>
        <mxCell id="2AzcEBxbOQShJ1PpPgPd-82" value="" style="endArrow=classic;html=1;rounded=0;exitX=0;exitY=1;exitDx=0;exitDy=0;entryX=0.5;entryY=0;entryDx=0;entryDy=0;" parent="1" source="2AzcEBxbOQShJ1PpPgPd-78" target="2AzcEBxbOQShJ1PpPgPd-79" edge="1">
          <mxGeometry width="50" height="50" relative="1" as="geometry">
            <mxPoint x="390" y="1110" as="sourcePoint" />
            <mxPoint x="440" y="1060" as="targetPoint" />
          </mxGeometry>
        </mxCell>
        <mxCell id="2AzcEBxbOQShJ1PpPgPd-83" value="" style="endArrow=classic;html=1;rounded=0;exitX=1;exitY=1;exitDx=0;exitDy=0;entryX=0.5;entryY=0;entryDx=0;entryDy=0;" parent="1" source="2AzcEBxbOQShJ1PpPgPd-78" target="2AzcEBxbOQShJ1PpPgPd-80" edge="1">
          <mxGeometry width="50" height="50" relative="1" as="geometry">
            <mxPoint x="136" y="864" as="sourcePoint" />
            <mxPoint x="110" y="910" as="targetPoint" />
          </mxGeometry>
        </mxCell>
        <mxCell id="2AzcEBxbOQShJ1PpPgPd-84" value="" style="endArrow=classic;html=1;rounded=0;exitX=1;exitY=1;exitDx=0;exitDy=0;entryX=0.35;entryY=0.025;entryDx=0;entryDy=0;entryPerimeter=0;" parent="1" source="2AzcEBxbOQShJ1PpPgPd-80" target="2AzcEBxbOQShJ1PpPgPd-81" edge="1">
          <mxGeometry width="50" height="50" relative="1" as="geometry">
            <mxPoint x="164" y="864" as="sourcePoint" />
            <mxPoint x="190" y="910" as="targetPoint" />
          </mxGeometry>
        </mxCell>
        <mxCell id="2AzcEBxbOQShJ1PpPgPd-85" value="" style="ellipse;whiteSpace=wrap;html=1;aspect=fixed;fillColor=#e1d5e7;strokeColor=#9673a6;strokeWidth=7;dashed=1;dashPattern=1 1;" parent="1" vertex="1">
          <mxGeometry x="360" y="820" width="40" height="40" as="geometry" />
        </mxCell>
        <mxCell id="2AzcEBxbOQShJ1PpPgPd-86" value="" style="ellipse;whiteSpace=wrap;html=1;aspect=fixed;fillColor=#d5e8d4;strokeColor=#82b366;strokeWidth=7;dashed=1;dashPattern=1 1;" parent="1" vertex="1">
          <mxGeometry x="320" y="900" width="40" height="40" as="geometry" />
        </mxCell>
        <mxCell id="2AzcEBxbOQShJ1PpPgPd-87" value="" style="ellipse;whiteSpace=wrap;html=1;aspect=fixed;fillColor=#d5e8d4;strokeColor=#82b366;strokeWidth=7;dashed=1;dashPattern=1 1;" parent="1" vertex="1">
          <mxGeometry x="400" y="900" width="40" height="40" as="geometry" />
        </mxCell>
        <mxCell id="2AzcEBxbOQShJ1PpPgPd-88" value="" style="ellipse;whiteSpace=wrap;html=1;aspect=fixed;fillColor=#d5e8d4;strokeColor=#82b366;strokeWidth=7;dashed=1;dashPattern=1 1;" parent="1" vertex="1">
          <mxGeometry x="430" y="980" width="40" height="40" as="geometry" />
        </mxCell>
        <mxCell id="2AzcEBxbOQShJ1PpPgPd-89" value="" style="endArrow=classic;html=1;rounded=0;exitX=0;exitY=1;exitDx=0;exitDy=0;entryX=0.5;entryY=0;entryDx=0;entryDy=0;" parent="1" source="2AzcEBxbOQShJ1PpPgPd-85" target="2AzcEBxbOQShJ1PpPgPd-86" edge="1">
          <mxGeometry width="50" height="50" relative="1" as="geometry">
            <mxPoint x="630" y="1110" as="sourcePoint" />
            <mxPoint x="680" y="1060" as="targetPoint" />
          </mxGeometry>
        </mxCell>
        <mxCell id="2AzcEBxbOQShJ1PpPgPd-90" value="" style="endArrow=classic;html=1;rounded=0;exitX=1;exitY=1;exitDx=0;exitDy=0;entryX=0.5;entryY=0;entryDx=0;entryDy=0;" parent="1" source="2AzcEBxbOQShJ1PpPgPd-85" target="2AzcEBxbOQShJ1PpPgPd-87" edge="1">
          <mxGeometry width="50" height="50" relative="1" as="geometry">
            <mxPoint x="376" y="864" as="sourcePoint" />
            <mxPoint x="350" y="910" as="targetPoint" />
          </mxGeometry>
        </mxCell>
        <mxCell id="2AzcEBxbOQShJ1PpPgPd-91" value="" style="endArrow=classic;html=1;rounded=0;exitX=1;exitY=1;exitDx=0;exitDy=0;entryX=0.35;entryY=0.025;entryDx=0;entryDy=0;entryPerimeter=0;" parent="1" source="2AzcEBxbOQShJ1PpPgPd-87" target="2AzcEBxbOQShJ1PpPgPd-88" edge="1">
          <mxGeometry width="50" height="50" relative="1" as="geometry">
            <mxPoint x="404" y="864" as="sourcePoint" />
            <mxPoint x="430" y="910" as="targetPoint" />
          </mxGeometry>
        </mxCell>
        <mxCell id="2AzcEBxbOQShJ1PpPgPd-92" value="" style="ellipse;whiteSpace=wrap;html=1;aspect=fixed;fillColor=#d5e8d4;strokeColor=#82b366;strokeWidth=7;dashed=1;dashPattern=1 1;" parent="1" vertex="1">
          <mxGeometry x="610" y="820" width="40" height="40" as="geometry" />
        </mxCell>
        <mxCell id="2AzcEBxbOQShJ1PpPgPd-93" value="" style="ellipse;whiteSpace=wrap;html=1;aspect=fixed;fillColor=#d5e8d4;strokeColor=#82b366;strokeWidth=7;dashed=1;dashPattern=1 1;" parent="1" vertex="1">
          <mxGeometry x="570" y="900" width="40" height="40" as="geometry" />
        </mxCell>
        <mxCell id="2AzcEBxbOQShJ1PpPgPd-94" value="" style="ellipse;whiteSpace=wrap;html=1;aspect=fixed;fillColor=#d5e8d4;strokeColor=#82b366;strokeWidth=7;dashed=1;dashPattern=1 1;" parent="1" vertex="1">
          <mxGeometry x="650" y="900" width="40" height="40" as="geometry" />
        </mxCell>
        <mxCell id="2AzcEBxbOQShJ1PpPgPd-95" value="" style="ellipse;whiteSpace=wrap;html=1;aspect=fixed;fillColor=#d5e8d4;strokeColor=#82b366;strokeWidth=7;dashed=1;dashPattern=1 1;" parent="1" vertex="1">
          <mxGeometry x="680" y="980" width="40" height="40" as="geometry" />
        </mxCell>
        <mxCell id="2AzcEBxbOQShJ1PpPgPd-96" value="" style="endArrow=classic;html=1;rounded=0;exitX=0;exitY=1;exitDx=0;exitDy=0;entryX=0.5;entryY=0;entryDx=0;entryDy=0;" parent="1" source="2AzcEBxbOQShJ1PpPgPd-92" target="2AzcEBxbOQShJ1PpPgPd-93" edge="1">
          <mxGeometry width="50" height="50" relative="1" as="geometry">
            <mxPoint x="880" y="1110" as="sourcePoint" />
            <mxPoint x="930" y="1060" as="targetPoint" />
          </mxGeometry>
        </mxCell>
        <mxCell id="2AzcEBxbOQShJ1PpPgPd-97" value="" style="endArrow=classic;html=1;rounded=0;exitX=1;exitY=1;exitDx=0;exitDy=0;entryX=0.5;entryY=0;entryDx=0;entryDy=0;" parent="1" source="2AzcEBxbOQShJ1PpPgPd-92" target="2AzcEBxbOQShJ1PpPgPd-94" edge="1">
          <mxGeometry width="50" height="50" relative="1" as="geometry">
            <mxPoint x="626" y="864" as="sourcePoint" />
            <mxPoint x="600" y="910" as="targetPoint" />
          </mxGeometry>
        </mxCell>
        <mxCell id="2AzcEBxbOQShJ1PpPgPd-98" value="" style="endArrow=classic;html=1;rounded=0;exitX=1;exitY=1;exitDx=0;exitDy=0;entryX=0.35;entryY=0.025;entryDx=0;entryDy=0;entryPerimeter=0;" parent="1" source="2AzcEBxbOQShJ1PpPgPd-94" target="2AzcEBxbOQShJ1PpPgPd-95" edge="1">
          <mxGeometry width="50" height="50" relative="1" as="geometry">
            <mxPoint x="654" y="864" as="sourcePoint" />
            <mxPoint x="680" y="910" as="targetPoint" />
          </mxGeometry>
        </mxCell>
        <mxCell id="2AzcEBxbOQShJ1PpPgPd-99" value="" style="ellipse;whiteSpace=wrap;html=1;aspect=fixed;strokeWidth=1;" parent="1" vertex="1">
          <mxGeometry x="820" y="40" width="40" height="40" as="geometry" />
        </mxCell>
        <mxCell id="2AzcEBxbOQShJ1PpPgPd-100" value="1" style="text;html=1;align=center;verticalAlign=middle;whiteSpace=wrap;rounded=0;strokeWidth=1;fontSize=32;" parent="1" vertex="1">
          <mxGeometry x="40" y="40" width="60" height="30" as="geometry" />
        </mxCell>
        <mxCell id="2AzcEBxbOQShJ1PpPgPd-102" value="2" style="text;html=1;align=center;verticalAlign=middle;whiteSpace=wrap;rounded=0;strokeWidth=1;fontSize=32;" parent="1" vertex="1">
          <mxGeometry x="280" y="40" width="60" height="30" as="geometry" />
        </mxCell>
        <mxCell id="2AzcEBxbOQShJ1PpPgPd-103" value="3" style="text;html=1;align=center;verticalAlign=middle;whiteSpace=wrap;rounded=0;strokeWidth=1;fontSize=32;" parent="1" vertex="1">
          <mxGeometry x="520" y="40" width="60" height="30" as="geometry" />
        </mxCell>
        <mxCell id="2AzcEBxbOQShJ1PpPgPd-104" value="4" style="text;html=1;align=center;verticalAlign=middle;whiteSpace=wrap;rounded=0;strokeWidth=1;fontSize=32;" parent="1" vertex="1">
          <mxGeometry x="40" y="300" width="60" height="30" as="geometry" />
        </mxCell>
        <mxCell id="2AzcEBxbOQShJ1PpPgPd-105" value="5" style="text;html=1;align=center;verticalAlign=middle;whiteSpace=wrap;rounded=0;strokeWidth=1;fontSize=32;" parent="1" vertex="1">
          <mxGeometry x="280" y="300" width="60" height="30" as="geometry" />
        </mxCell>
        <mxCell id="2AzcEBxbOQShJ1PpPgPd-106" value="6" style="text;html=1;align=center;verticalAlign=middle;whiteSpace=wrap;rounded=0;strokeWidth=1;fontSize=32;" parent="1" vertex="1">
          <mxGeometry x="520" y="300" width="60" height="30" as="geometry" />
        </mxCell>
        <mxCell id="2AzcEBxbOQShJ1PpPgPd-107" value="7" style="text;html=1;align=center;verticalAlign=middle;whiteSpace=wrap;rounded=0;strokeWidth=1;fontSize=32;" parent="1" vertex="1">
          <mxGeometry x="40" y="560" width="60" height="30" as="geometry" />
        </mxCell>
        <mxCell id="2AzcEBxbOQShJ1PpPgPd-108" value="8" style="text;html=1;align=center;verticalAlign=middle;whiteSpace=wrap;rounded=0;strokeWidth=1;fontSize=32;" parent="1" vertex="1">
          <mxGeometry x="280" y="560" width="60" height="30" as="geometry" />
        </mxCell>
        <mxCell id="2AzcEBxbOQShJ1PpPgPd-109" value="9" style="text;html=1;align=center;verticalAlign=middle;whiteSpace=wrap;rounded=0;strokeWidth=1;fontSize=32;" parent="1" vertex="1">
          <mxGeometry x="520" y="560" width="60" height="30" as="geometry" />
        </mxCell>
        <mxCell id="2AzcEBxbOQShJ1PpPgPd-110" value="10" style="text;html=1;align=center;verticalAlign=middle;whiteSpace=wrap;rounded=0;strokeWidth=1;fontSize=32;" parent="1" vertex="1">
          <mxGeometry x="40" y="820" width="60" height="30" as="geometry" />
        </mxCell>
        <mxCell id="2AzcEBxbOQShJ1PpPgPd-111" value="11" style="text;html=1;align=center;verticalAlign=middle;whiteSpace=wrap;rounded=0;strokeWidth=1;fontSize=32;" parent="1" vertex="1">
          <mxGeometry x="280" y="820" width="60" height="30" as="geometry" />
        </mxCell>
        <mxCell id="2AzcEBxbOQShJ1PpPgPd-112" value="12" style="text;html=1;align=center;verticalAlign=middle;whiteSpace=wrap;rounded=0;strokeWidth=1;fontSize=32;" parent="1" vertex="1">
          <mxGeometry x="520" y="820" width="60" height="30" as="geometry" />
        </mxCell>
        <mxCell id="2AzcEBxbOQShJ1PpPgPd-113" value="" style="ellipse;whiteSpace=wrap;html=1;aspect=fixed;strokeWidth=7;" parent="1" vertex="1">
          <mxGeometry x="820" y="100" width="40" height="40" as="geometry" />
        </mxCell>
        <mxCell id="2AzcEBxbOQShJ1PpPgPd-114" value="" style="ellipse;whiteSpace=wrap;html=1;aspect=fixed;strokeWidth=7;dashed=1;" parent="1" vertex="1">
          <mxGeometry x="820" y="160" width="40" height="40" as="geometry" />
        </mxCell>
        <mxCell id="2AzcEBxbOQShJ1PpPgPd-115" value="" style="ellipse;whiteSpace=wrap;html=1;aspect=fixed;strokeWidth=7;dashed=1;dashPattern=1 1;" parent="1" vertex="1">
          <mxGeometry x="820" y="220" width="40" height="40" as="geometry" />
        </mxCell>
        <mxCell id="2AzcEBxbOQShJ1PpPgPd-116" value="no task received" style="text;html=1;align=left;verticalAlign=middle;whiteSpace=wrap;rounded=0;strokeWidth=1;fontSize=27;" parent="1" vertex="1">
          <mxGeometry x="890" y="45" width="210" height="30" as="geometry" />
        </mxCell>
        <mxCell id="2AzcEBxbOQShJ1PpPgPd-117" value="task received" style="text;html=1;align=left;verticalAlign=middle;whiteSpace=wrap;rounded=0;strokeWidth=1;fontSize=27;" parent="1" vertex="1">
          <mxGeometry x="890" y="105" width="210" height="30" as="geometry" />
        </mxCell>
        <mxCell id="2AzcEBxbOQShJ1PpPgPd-118" value="received task divided" style="text;html=1;align=left;verticalAlign=middle;whiteSpace=wrap;rounded=0;strokeWidth=1;fontSize=27;" parent="1" vertex="1">
          <mxGeometry x="890" y="165" width="290" height="30" as="geometry" />
        </mxCell>
        <mxCell id="2AzcEBxbOQShJ1PpPgPd-119" value="task succeeded" style="text;html=1;align=left;verticalAlign=middle;whiteSpace=wrap;rounded=0;strokeWidth=1;fontSize=27;" parent="1" vertex="1">
          <mxGeometry x="890" y="225" width="210" height="30" as="geometry" />
        </mxCell>
        <mxCell id="2AzcEBxbOQShJ1PpPgPd-120" value="" style="ellipse;whiteSpace=wrap;html=1;aspect=fixed;strokeWidth=1;fillColor=#dae8fc;strokeColor=#6c8ebf;" parent="1" vertex="1">
          <mxGeometry x="820" y="355" width="40" height="40" as="geometry" />
        </mxCell>
        <mxCell id="2AzcEBxbOQShJ1PpPgPd-121" value="" style="ellipse;whiteSpace=wrap;html=1;aspect=fixed;strokeWidth=1;fillColor=#f8cecc;strokeColor=#b85450;" parent="1" vertex="1">
          <mxGeometry x="820" y="445" width="40" height="40" as="geometry" />
        </mxCell>
        <mxCell id="2AzcEBxbOQShJ1PpPgPd-122" value="" style="ellipse;whiteSpace=wrap;html=1;aspect=fixed;strokeWidth=1;fillColor=#fff2cc;strokeColor=#d6b656;" parent="1" vertex="1">
          <mxGeometry x="820" y="545" width="40" height="40" as="geometry" />
        </mxCell>
        <mxCell id="2AzcEBxbOQShJ1PpPgPd-123" value="" style="ellipse;whiteSpace=wrap;html=1;aspect=fixed;strokeWidth=1;fillColor=#e1d5e7;strokeColor=#9673a6;" parent="1" vertex="1">
          <mxGeometry x="820" y="637.5" width="40" height="40" as="geometry" />
        </mxCell>
        <mxCell id="2AzcEBxbOQShJ1PpPgPd-125" value="node state&amp;nbsp;&lt;i style=&quot;font-size: 27px;&quot;&gt;Free&lt;/i&gt;&lt;div style=&quot;font-size: 27px;&quot;&gt;sub-tree task state &lt;i style=&quot;font-size: 27px;&quot;&gt;None&lt;/i&gt;&lt;/div&gt;" style="text;html=1;align=left;verticalAlign=middle;whiteSpace=wrap;rounded=0;strokeWidth=1;fontSize=27;" parent="1" vertex="1">
          <mxGeometry x="880" y="340" width="400" height="70" as="geometry" />
        </mxCell>
        <mxCell id="2AzcEBxbOQShJ1PpPgPd-126" value="node state&amp;nbsp;&lt;i style=&quot;font-size: 27px;&quot;&gt;InTask(InProgress)&lt;/i&gt;&lt;div style=&quot;font-size: 27px;&quot;&gt;sub-tree task state &lt;i style=&quot;font-size: 27px;&quot;&gt;Recv&lt;/i&gt;&lt;/div&gt;" style="text;html=1;align=left;verticalAlign=middle;whiteSpace=wrap;rounded=0;strokeWidth=1;fontSize=27;" parent="1" vertex="1">
          <mxGeometry x="880" y="430" width="400" height="70" as="geometry" />
        </mxCell>
        <mxCell id="2AzcEBxbOQShJ1PpPgPd-127" value="node state&amp;nbsp;&lt;i style=&quot;font-size: 27px;&quot;&gt;InTask(InProgress)&lt;/i&gt;&lt;div style=&quot;font-size: 27px;&quot;&gt;sub-tree task state &lt;i style=&quot;font-size: 27px;&quot;&gt;Algn&lt;/i&gt;&lt;/div&gt;" style="text;html=1;align=left;verticalAlign=middle;whiteSpace=wrap;rounded=0;strokeWidth=1;fontSize=27;" parent="1" vertex="1">
          <mxGeometry x="880" y="530" width="400" height="70" as="geometry" />
        </mxCell>
        <mxCell id="2AzcEBxbOQShJ1PpPgPd-128" value="node state&amp;nbsp;&lt;i style=&quot;font-size: 27px;&quot;&gt;InTask(InProgress)&lt;/i&gt;&lt;div style=&quot;font-size: 27px;&quot;&gt;sub-tree task state &lt;i style=&quot;font-size: 27px;&quot;&gt;Allc&lt;/i&gt;&lt;/div&gt;" style="text;html=1;align=left;verticalAlign=middle;whiteSpace=wrap;rounded=0;strokeWidth=1;fontSize=27;" parent="1" vertex="1">
          <mxGeometry x="880" y="622.5" width="400" height="70" as="geometry" />
        </mxCell>
        <mxCell id="2AzcEBxbOQShJ1PpPgPd-130" value="" style="ellipse;whiteSpace=wrap;html=1;aspect=fixed;strokeWidth=1;fillColor=#d5e8d4;strokeColor=#82b366;" parent="1" vertex="1">
          <mxGeometry x="820" y="735" width="40" height="40" as="geometry" />
        </mxCell>
        <mxCell id="2AzcEBxbOQShJ1PpPgPd-131" value="node state&amp;nbsp;&lt;i style=&quot;font-size: 27px;&quot;&gt;InTask(Success)&lt;/i&gt;&lt;div style=&quot;font-size: 27px;&quot;&gt;sub-tree task state &lt;i style=&quot;font-size: 27px;&quot;&gt;Succ&lt;/i&gt;&lt;/div&gt;" style="text;html=1;align=left;verticalAlign=middle;whiteSpace=wrap;rounded=0;strokeWidth=1;fontSize=27;" parent="1" vertex="1">
          <mxGeometry x="881" y="720" width="399" height="70" as="geometry" />
        </mxCell>
      </root>
    </mxGraphModel>
  </diagram>
</mxfile>
